<?xml version="1.0" encoding="UTF-8"?>
<svg xmlns="http://www.w3.org/2000/svg" xmlns:xlink="http://www.w3.org/1999/xlink" width="px" height="px" viewBox="0 0 150 150" version="1.1">
<g id="surface1">
<path style=" stroke:none;fill-rule:nonzero;fill:rgb(20%,20%,20%);fill-opacity:1;" d="M 75 0 C 33.578125 0 0 33.578125 0 75 C 0 116.421875 33.578125 150 75 150 C 116.417969 150 150 116.421875 150 75 C 150 33.578125 116.417969 0 75 0 Z M 75 145.3125 C 36.167969 145.3125 4.6875 113.832031 4.6875 75 C 4.6875 36.167969 36.167969 4.6875 75 4.6875 C 113.828125 4.6875 145.3125 36.167969 145.3125 75 C 145.3125 113.832031 113.828125 145.3125 75 145.3125 Z M 88.035156 46.875 L 100.78125 46.875 C 101.382812 46.875 101.980469 47.105469 102.4375 47.5625 C 102.894531 48.019531 103.125 48.617188 103.125 49.21875 L 103.125 64.453125 C 103.125 65.746094 104.171875 66.796875 105.46875 66.796875 C 106.765625 66.796875 107.8125 65.746094 107.8125 64.453125 L 107.8125 46.875 C 107.8125 45.675781 107.355469 44.476562 106.4375 43.5625 C 105.523438 42.644531 104.324219 42.1875 103.125 42.1875 L 88.035156 42.1875 C 86.738281 42.1875 85.691406 43.238281 85.691406 44.53125 C 85.691406 45.824219 86.742188 46.875 88.035156 46.875 Z M 105.46875 83.203125 C 104.171875 83.203125 103.125 84.25 103.125 85.546875 L 103.125 100.78125 C 103.125 101.382812 102.894531 101.980469 102.4375 102.4375 C 101.980469 102.894531 101.382812 103.125 100.78125 103.125 L 88.035156 103.125 C 86.738281 103.125 85.691406 104.171875 85.691406 105.46875 C 85.691406 106.765625 86.738281 107.8125 88.035156 107.8125 L 103.125 107.8125 C 104.324219 107.8125 105.523438 107.355469 106.4375 106.4375 C 107.355469 105.523438 107.8125 104.324219 107.8125 103.125 L 107.8125 85.546875 C 107.8125 84.25 106.765625 83.203125 105.46875 83.203125 Z M 44.53125 66.796875 C 45.824219 66.796875 46.875 65.746094 46.875 64.453125 L 46.875 49.21875 C 46.875 48.617188 47.105469 48.019531 47.5625 47.5625 C 48.019531 47.105469 48.617188 46.875 49.21875 46.875 L 62.109375 46.875 C 63.402344 46.875 64.453125 45.824219 64.453125 44.53125 C 64.453125 43.238281 63.402344 42.1875 62.109375 42.1875 L 46.875 42.1875 C 45.675781 42.1875 44.476562 42.644531 43.5625 43.5625 C 42.644531 44.476562 42.1875 45.675781 42.1875 46.875 L 42.1875 64.453125 C 42.1875 65.746094 43.238281 66.796875 44.53125 66.796875 Z M 62.109375 103.125 L 49.21875 103.125 C 48.617188 103.125 48.019531 102.894531 47.5625 102.4375 C 47.105469 101.980469 46.875 101.382812 46.875 100.78125 L 46.875 85.546875 C 46.875 84.25 45.824219 83.203125 44.53125 83.203125 C 43.238281 83.203125 42.1875 84.25 42.1875 85.546875 L 42.1875 103.125 C 42.1875 104.324219 42.644531 105.523438 43.5625 106.4375 C 44.476562 107.355469 45.675781 107.8125 46.875 107.8125 L 62.109375 107.8125 C 63.402344 107.8125 64.453125 106.765625 64.453125 105.46875 C 64.453125 104.171875 63.402344 103.125 62.109375 103.125 Z M 107.8125 72.65625 L 42.1875 72.65625 C 40.894531 72.65625 39.84375 73.707031 39.84375 75 C 39.84375 76.296875 40.894531 77.34375 42.1875 77.34375 L 107.8125 77.34375 C 109.109375 77.34375 110.15625 76.296875 110.15625 75 C 110.15625 73.707031 109.109375 72.65625 107.8125 72.65625 Z M 107.8125 72.65625 "/>
</g>
</svg>
