<?xml version="1.0" encoding="UTF-8"?>
<svg xmlns="http://www.w3.org/2000/svg" xmlns:xlink="http://www.w3.org/1999/xlink" width="px" height="px" viewBox="0 0 150 150" version="1.1">
<g id="surface1">
<path style=" stroke:none;fill-rule:nonzero;fill:rgb(20%,20%,20%);fill-opacity:1;" d="M 75 0 C 33.578125 0 0 33.578125 0 75 C 0 116.421875 33.578125 150 75 150 C 116.417969 150 150 116.421875 150 75 C 150 33.578125 116.417969 0 75 0 Z M 75 145.3125 C 36.167969 145.3125 4.6875 113.832031 4.6875 75 C 4.6875 36.167969 36.167969 4.6875 75 4.6875 C 113.828125 4.6875 145.3125 36.167969 145.3125 75 C 145.3125 113.832031 113.828125 145.3125 75 145.3125 Z M 120.285156 75.894531 C 120.347656 75.746094 120.40625 75.605469 120.4375 75.449219 C 120.46875 75.289062 120.472656 75.140625 120.46875 74.984375 C 120.46875 74.84375 120.464844 74.710938 120.441406 74.574219 C 120.40625 74.398438 120.34375 74.242188 120.273438 74.078125 C 120.238281 73.996094 120.238281 73.910156 120.191406 73.832031 C 120.167969 73.796875 120.132812 73.773438 120.109375 73.738281 C 120.015625 73.59375 119.890625 73.472656 119.769531 73.347656 C 119.664062 73.25 119.570312 73.152344 119.457031 73.074219 C 119.410156 73.042969 119.386719 72.996094 119.335938 72.96875 L 52.355469 34.296875 C 52.3125 34.273438 52.265625 34.273438 52.222656 34.253906 C 52.082031 34.183594 51.929688 34.144531 51.777344 34.105469 C 51.625 34.0625 51.476562 34.023438 51.324219 34.011719 C 51.273438 34.011719 51.234375 33.984375 51.183594 33.984375 C 51.082031 33.984375 50.992188 34.03125 50.894531 34.042969 C 50.734375 34.0625 50.582031 34.085938 50.429688 34.136719 C 50.28125 34.1875 50.160156 34.257812 50.027344 34.332031 C 49.898438 34.402344 49.777344 34.476562 49.660156 34.578125 C 49.539062 34.683594 49.445312 34.808594 49.34375 34.9375 C 49.285156 35.011719 49.203125 35.066406 49.152344 35.152344 C 49.125 35.199219 49.128906 35.246094 49.105469 35.289062 C 49.035156 35.429688 49 35.578125 48.957031 35.730469 C 48.914062 35.886719 48.871094 36.03125 48.863281 36.191406 C 48.859375 36.238281 48.835938 36.277344 48.835938 36.328125 L 48.835938 113.675781 C 48.835938 113.726562 48.859375 113.765625 48.863281 113.8125 C 48.871094 113.96875 48.914062 114.121094 48.957031 114.277344 C 49 114.429688 49.035156 114.578125 49.101562 114.714844 C 49.125 114.757812 49.121094 114.804688 49.148438 114.851562 C 49.199219 114.9375 49.28125 114.992188 49.34375 115.070312 C 49.441406 115.199219 49.539062 115.320312 49.660156 115.429688 C 49.773438 115.527344 49.898438 115.601562 50.03125 115.675781 C 50.160156 115.75 50.28125 115.820312 50.421875 115.867188 C 50.582031 115.921875 50.738281 115.945312 50.902344 115.964844 C 50.996094 115.976562 51.082031 116.019531 51.179688 116.019531 C 51.230469 116.019531 51.269531 115.996094 51.316406 115.992188 C 51.472656 115.984375 51.625 115.941406 51.78125 115.898438 C 51.933594 115.855469 52.082031 115.820312 52.21875 115.753906 C 52.261719 115.730469 52.3125 115.730469 52.355469 115.707031 L 119.335938 77.035156 C 119.382812 77.007812 119.40625 76.964844 119.449219 76.933594 C 119.574219 76.851562 119.675781 76.746094 119.785156 76.636719 C 119.902344 76.523438 120.015625 76.410156 120.101562 76.277344 C 120.132812 76.238281 120.171875 76.214844 120.195312 76.171875 C 120.246094 76.082031 120.25 75.984375 120.285156 75.894531 Z M 53.527344 40.386719 L 113.476562 75 L 53.527344 109.613281 Z M 53.527344 40.386719 "/>
</g>
</svg>
