<?xml version="1.0" standalone="no"?><!DOCTYPE svg PUBLIC "-//W3C//DTD SVG 1.1//EN" "http://www.w3.org/Graphics/SVG/1.1/DTD/svg11.dtd"><svg class="icon" width="200px" height="200.00px" viewBox="0 0 1024 1024" version="1.1" xmlns="http://www.w3.org/2000/svg"><path fill="#333333" d="M512 0C229.216 0 0 229.216 0 512c0 282.768 229.216 512 512 512 282.752 0 512-229.232 512-512C1024 229.216 794.752 0 512 0zM512 992C246.896 992 32 777.088 32 512 32 246.896 246.896 32 512 32c265.056 0 480 214.896 480 480C992 777.088 777.056 992 512 992zM816.432 475.872 522.272 229.04c-0.384-0.336-0.912-0.448-1.328-0.736-0.896-0.624-1.792-1.136-2.816-1.568-0.944-0.4-1.904-0.656-2.928-0.864-0.608-0.128-1.12-0.464-1.76-0.528-0.496-0.032-0.944 0.16-1.44 0.16-0.48 0-0.912-0.208-1.392-0.16-0.624 0.048-1.12 0.384-1.712 0.512-1.04 0.208-2.032 0.464-3.008 0.88-1.008 0.416-1.904 0.928-2.784 1.552-0.416 0.288-0.96 0.416-1.344 0.736L207.584 475.872c-3.136 2.624-5.28 6.448-5.664 10.864s1.056 8.544 3.68 11.68c2.64 3.12 6.464 5.264 10.864 5.648 4.384 0.368 8.544-1.056 11.664-3.68l21.712-18.224 0 268.496c0 6.624 4.016 12.288 9.744 14.72 0 0 0.016 0.016 0.016 0.016 1.92 0.816 4.016 1.264 6.24 1.264l492.288 0c8.848 0 16-7.152 16-16L774.128 482.144l21.728 18.24c3.12 2.624 7.264 4.048 11.664 3.68 4.4-0.384 8.24-2.528 10.864-5.664 2.624-3.12 4.064-7.264 3.664-11.664C821.696 482.32 819.568 478.496 816.432 475.872zM425.856 579.312l172.288 0 0 155.344L425.856 734.656 425.856 579.312zM742.144 455.328l0 279.328-112 0L630.144 563.312c0-8.848-7.152-16-16-16L409.856 547.312c-8.848 0-16 7.152-16 16l0 171.344-112 0L281.856 455.328l0 0L512 262.192l230.144 193.104C742.144 455.312 742.144 455.312 742.144 455.328z" /></svg>