<?xml version="1.0" encoding="UTF-8"?>
<svg xmlns="http://www.w3.org/2000/svg" xmlns:xlink="http://www.w3.org/1999/xlink" width="px" height="px" viewBox="0 0 150 150" version="1.1">
<g id="surface1">
<path style=" stroke:none;fill-rule:nonzero;fill:rgb(20%,20%,20%);fill-opacity:1;" d="M 75 0 C 33.578125 0 0 33.578125 0 75 C 0 116.421875 33.578125 150 75 150 C 116.417969 150 150 116.421875 150 75 C 150 33.578125 116.417969 0 75 0 Z M 75 145.3125 C 36.167969 145.3125 4.6875 113.832031 4.6875 75 C 4.6875 36.167969 36.167969 4.6875 75 4.6875 C 113.828125 4.6875 145.3125 36.167969 145.3125 75 C 145.3125 113.832031 113.828125 145.3125 75 145.3125 Z M 86.882812 113.140625 C 87.800781 114.054688 89.28125 114.054688 90.195312 113.140625 C 91.113281 112.222656 91.113281 110.742188 90.195312 109.824219 L 55.371094 75.003906 L 90.195312 40.175781 C 91.113281 39.257812 91.113281 37.777344 90.195312 36.859375 C 89.28125 35.945312 87.800781 35.945312 86.882812 36.859375 L 50.421875 73.320312 C 49.960938 73.785156 49.734375 74.394531 49.742188 75 C 49.734375 75.605469 49.960938 76.214844 50.421875 76.679688 Z M 86.882812 113.140625 "/>
</g>
</svg>
