<?xml version="1.0" standalone="no"?><!DOCTYPE svg PUBLIC "-//W3C//DTD SVG 1.1//EN" "http://www.w3.org/Graphics/SVG/1.1/DTD/svg11.dtd"><svg class="icon" width="200px" height="200.00px" viewBox="0 0 1024 1024" version="1.1" xmlns="http://www.w3.org/2000/svg"><path fill="#333333" d="M512 0C229.216 0 0 229.216 0 512c0 282.768 229.216 512 512 512 282.752 0 512-229.232 512-512C1024 229.216 794.752 0 512 0zM512 992C246.896 992 32 777.088 32 512 32 246.896 246.896 32 512 32c265.056 0 480 214.896 480 480C992 777.088 777.056 992 512 992zM781.984 537.968c-8.944 0-16.176 7.232-16.176 16.176-20.912 120.368-125.6 212-251.968 212-141.392 0-256-114.608-256-256 0-126.336 91.632-231.056 212-251.952 8.928 0 16.16-7.232 16.16-16.16s-7.232-16.16-16.16-16.16c-138.128 21.216-244 140.24-244 284.288 0 159.056 128.944 288 288 288 144.048 0 263.056-105.872 284.304-244C798.16 545.2 790.928 537.968 781.984 537.968zM815.36 491.68c-2.72-41.12-13.76-80.16-31.36-115.2-29.28-59.04-77.456-107.2-136.64-136.48-35.04-17.6-73.92-28.64-115.04-31.36-2.4-0.16-4.96-0.32-7.52-0.32C517.44 209.76 512 216.32 512 224l0 256c0 8.16 3.024 16.32 9.264 22.56C527.52 508.8 535.824 512 544 512l256 0c7.664 0 14.24-5.44 15.664-12.8C815.664 496.64 815.52 494.08 815.36 491.68zM560 480c-4.176 0-8.176-1.6-11.36-4.64C545.6 472.16 544 468.16 544 464L544 241.92c124.64 14.56 223.52 113.44 238.08 238.08L560 480z" /></svg>