<?xml version="1.0" standalone="no"?><!DOCTYPE svg PUBLIC "-//W3C//DTD SVG 1.1//EN" "http://www.w3.org/Graphics/SVG/1.1/DTD/svg11.dtd"><svg class="icon" width="200px" height="200.00px" viewBox="0 0 1024 1024" version="1.1" xmlns="http://www.w3.org/2000/svg"><path fill="#333333" d="M512 0C229.216 0 0 229.216 0 512c0 282.768 229.216 512 512 512 282.752 0 512-229.232 512-512C1024 229.216 794.752 0 512 0zM512 992C246.896 992 32 777.088 32 512 32 246.896 246.896 32 512 32c265.056 0 480 214.896 480 480C992 777.088 777.056 992 512 992zM512 208c-167.888 0-304 136.112-304 304s136.112 304 304 304 304-136.112 304-304S679.888 208 512 208zM783.184 496l-56.976 0c-5.616-107.68-67.136-200.32-156.256-249.664C687.232 271.808 776.016 372.896 783.184 496zM496 528l0 233.424C404.384 721.568 339.28 632.752 333.168 528L496 528zM333.168 496C339.28 391.248 404.384 302.432 496 262.576L496 496 333.168 496zM528 528l166.128 0C687.936 634.016 621.36 723.776 528 762.928L528 528zM528 496 528 261.072c93.36 39.136 159.936 128.896 166.128 234.928L528 496zM459.36 245.2c-90.208 49.072-152.64 142.304-158.304 250.8L240.8 496C248.096 371.024 339.456 268.72 459.36 245.2zM240.8 528l60.272 0c5.664 108.512 68.096 201.728 158.304 250.816C339.472 755.28 248.096 652.976 240.8 528zM569.952 777.664C659.056 728.32 720.608 635.68 726.224 528l56.976 0C776.016 651.104 687.232 752.192 569.952 777.664zM752.08 325.968c-6.544-8.448-13.488-16.56-20.88-24.272-42.864 31.568-120.432 55.632-219.072 55.632-98.752 0-176.384-24.128-219.232-55.744-7.392 7.696-14.32 15.808-20.88 24.256 51.152 38.544 138.704 63.488 240.096 63.488C613.408 389.328 700.896 364.448 752.08 325.968zM264.64 688.304c6.144 8.592 12.736 16.816 19.712 24.72 40.56-34.832 122.208-62.336 227.76-62.336 105.44 0 187.024 27.456 227.648 62.224 6.976-7.904 13.568-16.128 19.68-24.72-49.808-41.888-140.832-69.504-247.328-69.504C405.52 618.672 314.432 646.336 264.64 688.304z" /></svg>