<?xml version="1.0" standalone="no"?><!DOCTYPE svg PUBLIC "-//W3C//DTD SVG 1.1//EN" "http://www.w3.org/Graphics/SVG/1.1/DTD/svg11.dtd"><svg class="icon" width="200px" height="200.00px" viewBox="0 0 1024 1024" version="1.1" xmlns="http://www.w3.org/2000/svg"><path fill="#333333" d="M512 0C229.216 0 0 229.216 0 512c0 282.768 229.216 512 512 512 282.752 0 512-229.232 512-512C1024 229.216 794.752 0 512 0zM512 992C246.896 992 32 777.088 32 512 32 246.896 246.896 32 512 32c265.056 0 480 214.896 480 480C992 777.088 777.056 992 512 992zM448.992 396.304l-32 0 0-32c0-8.832-7.168-16-16-16s-16 7.168-16 16l0 32-32 0c-8.832 0-16 7.168-16 16s7.168 16 16 16l32 0 0 32c0 8.832 7.168 16 16 16s16-7.168 16-16l0-32 32 0c8.832 0 16-7.168 16-16S457.84 396.304 448.992 396.304zM671.008 396.304l-96 0c-8.848 0-16 7.168-16 16s7.152 16 16 16l96 0c8.848 0 16-7.168 16-16S679.84 396.304 671.008 396.304zM446.256 574.512c-6.24-6.256-16.368-6.256-22.624 0l-22.624 22.624-22.624-22.624c-6.256-6.256-16.384-6.256-22.624 0-6.256 6.256-6.256 16.368 0 22.624l22.624 22.624-22.624 22.624c-6.256 6.256-6.24 16.368 0 22.624 6.24 6.256 16.368 6.256 22.624 0l22.624-22.624 22.624 22.624c6.256 6.256 16.384 6.256 22.624 0 6.256-6.256 6.256-16.368 0-22.624l-22.624-22.624 22.624-22.624C452.512 590.896 452.496 580.768 446.256 574.512zM671.008 603.76l-96 0c-8.848 0-16 7.152-16 16s7.152 16 16 16l96 0c8.848 0 16-7.152 16-16S679.84 603.76 671.008 603.76zM623.008 579.824m-16 0a1 1 0 1 0 32 0 1 1 0 1 0-32 0ZM623.008 659.696m-16 0a1 1 0 1 0 32 0 1 1 0 1 0-32 0ZM512 216c-182.576 0-296 113.424-296 296S329.424 808 512 808 808 694.576 808 512 694.576 216 512 216zM512 776c-165.312 0-264-98.688-264-264 0-165.312 98.688-264 264-264 165.312 0 264 98.688 264 264C776 677.312 677.312 776 512 776z" /></svg>