<?xml version="1.0" encoding="UTF-8"?>
<svg xmlns="http://www.w3.org/2000/svg" xmlns:xlink="http://www.w3.org/1999/xlink" width="px" height="px" viewBox="0 0 150 150" version="1.1">
<g id="surface1">
<path style=" stroke:none;fill-rule:nonzero;fill:rgb(20%,20%,20%);fill-opacity:1;" d="M 75 0 C 33.578125 0 0 33.578125 0 75 C 0 116.421875 33.578125 150 75 150 C 116.417969 150 150 116.421875 150 75 C 150 33.578125 116.417969 0 75 0 Z M 75 145.3125 C 36.167969 145.3125 4.6875 113.832031 4.6875 75 C 4.6875 36.167969 36.167969 4.6875 75 4.6875 C 113.828125 4.6875 145.3125 36.167969 145.3125 75 C 145.3125 113.832031 113.828125 145.3125 75 145.3125 Z M 65.769531 58.050781 L 61.082031 58.050781 L 61.082031 53.363281 C 61.082031 52.070312 60.03125 51.019531 58.738281 51.019531 C 57.445312 51.019531 56.394531 52.070312 56.394531 53.363281 L 56.394531 58.050781 L 51.707031 58.050781 C 50.414062 58.050781 49.363281 59.101562 49.363281 60.394531 C 49.363281 61.691406 50.414062 62.738281 51.707031 62.738281 L 56.394531 62.738281 L 56.394531 67.425781 C 56.394531 68.722656 57.445312 69.769531 58.738281 69.769531 C 60.03125 69.769531 61.082031 68.722656 61.082031 67.425781 L 61.082031 62.738281 L 65.769531 62.738281 C 67.0625 62.738281 68.113281 61.691406 68.113281 60.394531 C 68.113281 59.101562 67.066406 58.050781 65.769531 58.050781 Z M 98.292969 58.050781 L 84.230469 58.050781 C 82.933594 58.050781 81.886719 59.101562 81.886719 60.394531 C 81.886719 61.691406 82.933594 62.738281 84.230469 62.738281 L 98.292969 62.738281 C 99.589844 62.738281 100.636719 61.691406 100.636719 60.394531 C 100.636719 59.101562 99.585938 58.050781 98.292969 58.050781 Z M 65.371094 84.15625 C 64.457031 83.242188 62.972656 83.242188 62.054688 84.15625 L 58.742188 87.472656 L 55.425781 84.15625 C 54.511719 83.242188 53.027344 83.242188 52.113281 84.15625 C 51.195312 85.074219 51.195312 86.554688 52.113281 87.472656 L 55.425781 90.785156 L 52.113281 94.097656 C 51.195312 95.015625 51.199219 96.496094 52.113281 97.414062 C 53.027344 98.328125 54.511719 98.328125 55.425781 97.414062 L 58.742188 94.097656 L 62.054688 97.414062 C 62.972656 98.328125 64.457031 98.328125 65.371094 97.414062 C 66.285156 96.496094 66.285156 95.015625 65.371094 94.097656 L 62.054688 90.785156 L 65.371094 87.472656 C 66.285156 86.558594 66.285156 85.074219 65.371094 84.15625 Z M 98.292969 88.441406 L 84.230469 88.441406 C 82.933594 88.441406 81.886719 89.488281 81.886719 90.785156 C 81.886719 92.082031 82.933594 93.128906 84.230469 93.128906 L 98.292969 93.128906 C 99.589844 93.128906 100.636719 92.082031 100.636719 90.785156 C 100.636719 89.488281 99.585938 88.441406 98.292969 88.441406 Z M 88.917969 84.933594 C 88.917969 86.230469 89.964844 87.277344 91.261719 87.277344 C 92.554688 87.277344 93.605469 86.230469 93.605469 84.933594 C 93.605469 83.640625 92.554688 82.589844 91.261719 82.589844 C 89.964844 82.589844 88.917969 83.640625 88.917969 84.933594 Z M 88.917969 96.636719 C 88.917969 97.929688 89.964844 98.980469 91.261719 98.980469 C 92.554688 98.980469 93.605469 97.929688 93.605469 96.636719 C 93.605469 95.339844 92.554688 94.292969 91.261719 94.292969 C 89.964844 94.292969 88.917969 95.339844 88.917969 96.636719 Z M 75 31.640625 C 48.253906 31.640625 31.640625 48.253906 31.640625 75 C 31.640625 101.746094 48.253906 118.359375 75 118.359375 C 101.746094 118.359375 118.359375 101.746094 118.359375 75 C 118.359375 48.253906 101.746094 31.640625 75 31.640625 Z M 75 113.671875 C 50.785156 113.671875 36.328125 99.214844 36.328125 75 C 36.328125 50.785156 50.785156 36.328125 75 36.328125 C 99.214844 36.328125 113.671875 50.785156 113.671875 75 C 113.671875 99.214844 99.214844 113.671875 75 113.671875 Z M 75 113.671875 "/>
</g>
</svg>
