<?xml version="1.0" encoding="UTF-8"?>
<svg xmlns="http://www.w3.org/2000/svg" xmlns:xlink="http://www.w3.org/1999/xlink" width="px" height="px" viewBox="0 0 150 150" version="1.1">
<g id="surface1">
<path style=" stroke:none;fill-rule:nonzero;fill:rgb(20%,20%,20%);fill-opacity:1;" d="M 75 0 C 33.578125 0 0 33.578125 0 75 C 0 116.421875 33.578125 150 75 150 C 116.417969 150 150 116.421875 150 75 C 150 33.578125 116.417969 0 75 0 Z M 75 145.3125 C 36.167969 145.3125 4.6875 113.832031 4.6875 75 C 4.6875 36.167969 36.167969 4.6875 75 4.6875 C 113.828125 4.6875 145.3125 36.167969 145.3125 75 C 145.3125 113.832031 113.828125 145.3125 75 145.3125 Z M 103.015625 110.210938 C 103.308594 111.917969 102.644531 113.714844 101.152344 114.796875 C 99.660156 115.878906 97.742188 115.957031 96.214844 115.152344 L 76.09375 104.570312 C 75.769531 104.398438 75.398438 104.300781 75.003906 104.300781 C 74.609375 104.300781 74.242188 104.398438 73.914062 104.570312 L 53.789062 115.152344 C 52.261719 115.957031 50.34375 115.882812 48.851562 114.796875 C 47.363281 113.714844 46.695312 111.917969 46.988281 110.210938 L 50.832031 87.800781 C 50.894531 87.4375 50.875 87.054688 50.75 86.679688 C 50.628906 86.304688 50.421875 85.984375 50.160156 85.726562 L 33.878906 69.855469 C 32.640625 68.652344 32.125 66.804688 32.691406 65.050781 C 33.261719 63.296875 34.765625 62.109375 36.476562 61.859375 L 58.976562 58.589844 C 59.34375 58.539062 59.699219 58.398438 60.019531 58.167969 C 60.335938 57.933594 60.578125 57.636719 60.742188 57.308594 L 70.804688 36.917969 C 71.570312 35.371094 73.164062 34.304688 75.007812 34.304688 C 76.851562 34.304688 78.449219 35.371094 79.210938 36.917969 L 89.273438 57.308594 C 89.433594 57.636719 89.679688 57.933594 89.996094 58.167969 C 90.316406 58.398438 90.675781 58.539062 91.039062 58.589844 L 113.535156 61.859375 C 115.246094 62.109375 116.75 63.296875 117.320312 65.050781 C 117.886719 66.804688 117.371094 68.652344 116.132812 69.855469 L 99.855469 85.726562 C 99.59375 85.984375 99.382812 86.304688 99.261719 86.679688 C 99.140625 87.054688 99.121094 87.4375 99.183594 87.800781 Z M 73.914062 99.277344 C 74.238281 99.105469 74.609375 99.007812 75.003906 99.007812 C 75.394531 99.007812 75.765625 99.105469 76.09375 99.277344 L 94.191406 108.792969 C 94.957031 109.199219 95.914062 109.15625 96.660156 108.617188 C 97.40625 108.078125 97.738281 107.175781 97.59375 106.324219 L 94.140625 86.164062 C 94.078125 85.800781 94.097656 85.421875 94.21875 85.042969 C 94.339844 84.664062 94.550781 84.347656 94.8125 84.089844 L 109.457031 69.8125 C 110.074219 69.207031 110.332031 68.285156 110.046875 67.410156 C 109.761719 66.53125 109.011719 65.9375 108.15625 65.8125 L 87.917969 62.875 C 87.554688 62.820312 87.191406 62.679688 86.875 62.449219 C 86.558594 62.21875 86.316406 61.917969 86.152344 61.589844 L 77.101562 43.25 C 76.71875 42.472656 75.921875 41.945312 75 41.945312 C 74.078125 41.945312 73.28125 42.476562 72.898438 43.25 L 63.847656 61.589844 C 63.683594 61.917969 63.441406 62.21875 63.125 62.449219 C 62.804688 62.679688 62.445312 62.820312 62.082031 62.875 L 41.84375 65.8125 C 40.988281 65.9375 40.234375 66.53125 39.953125 67.410156 C 39.667969 68.285156 39.925781 69.207031 40.542969 69.8125 L 55.191406 84.085938 C 55.453125 84.34375 55.660156 84.664062 55.785156 85.039062 C 55.90625 85.414062 55.925781 85.796875 55.867188 86.164062 L 52.410156 106.320312 C 52.261719 107.171875 52.597656 108.074219 53.339844 108.613281 C 54.085938 109.15625 55.042969 109.195312 55.808594 108.792969 Z M 73.914062 99.277344 "/>
</g>
</svg>
