<?xml version="1.0" standalone="no"?><!DOCTYPE svg PUBLIC "-//W3C//DTD SVG 1.1//EN" "http://www.w3.org/Graphics/SVG/1.1/DTD/svg11.dtd"><svg class="icon" width="200px" height="200.00px" viewBox="0 0 1024 1024" version="1.1" xmlns="http://www.w3.org/2000/svg"><path fill="#333333" d="M512 0C229.216 0 0 229.216 0 512c0 282.768 229.216 512 512 512 282.752 0 512-229.232 512-512C1024 229.216 794.752 0 512 0zM512 992C246.896 992 32 777.088 32 512 32 246.896 246.896 32 512 32c265.056 0 480 214.896 480 480C992 777.088 777.056 992 512 992zM790.816 567.648c-9.104 0-16.496 7.392-16.496 16.48-31.536 115.36-136.784 200.256-262.128 200.256-114.192 0-211.52-70.592-251.792-170.336l52.912 24.672c8.016 3.728 17.536 0.272 21.264-7.728 3.728-8.016 0.288-17.536-7.728-21.28l-85.536-39.872c-2.224-1.216-4.656-2.032-7.328-2.112-0.112 0-0.224-0.064-0.336-0.064-0.016 0-0.048-0.016-0.064-0.016-0.208 0-0.368 0.112-0.576 0.128-5.984 0.032-11.728 3.344-14.416 9.12l-40.56 87.008c-3.744 8.016-0.288 17.536 7.712 21.264s17.536 0.272 21.28-7.728l23.824-51.12c45.072 111.36 153.824 190.096 281.344 190.096 143.12 0 262.832-99.024 295.104-232.256C807.312 575.024 799.92 567.632 790.816 567.648zM838.272 338.848c-7.984-3.728-17.536-0.288-21.264 7.744l-23.632 50.672c-45.184-111.12-153.824-189.648-281.184-189.648-143.12 0-262.816 99.024-295.12 232.24 0 9.104 7.376 16.496 16.496 16.496s16.512-7.392 16.496-16.496c31.536-115.328 136.784-200.24 262.112-200.24 114.288 0 211.664 70.704 251.904 170.56l-53.408-24.912c-8.016-3.728-17.52-0.272-21.264 7.728-3.712 8.016-0.272 17.536 7.744 21.264l86.736 40.448c1.312 0.608 2.768 0.832 4.224 1.072 0.848 0.16 1.648 0.48 2.464 0.496 0.08 0 0.144 0.048 0.224 0.048 0.64 0 1.184-0.304 1.792-0.352 1.456-0.16 2.88-0.32 4.224-0.864 0.96-0.368 1.712-0.992 2.56-1.552 0.864-0.544 1.76-0.992 2.512-1.68 1.888-1.744 3.328-3.872 4.256-6.336l39.84-85.472C849.728 352.096 846.288 342.576 838.272 338.848z" /></svg>