<?xml version="1.0" standalone="no"?><!DOCTYPE svg PUBLIC "-//W3C//DTD SVG 1.1//EN" "http://www.w3.org/Graphics/SVG/1.1/DTD/svg11.dtd"><svg class="icon" width="200px" height="200.00px" viewBox="0 0 1024 1024" version="1.1" xmlns="http://www.w3.org/2000/svg"><path fill="#333333" d="M512 0C229.216 0 0 229.216 0 512c0 282.768 229.216 512 512 512 282.752 0 512-229.232 512-512C1024 229.216 794.752 0 512 0zM512 992C246.896 992 32 777.088 32 512 32 246.896 246.896 32 512 32c265.056 0 480 214.896 480 480C992 777.088 777.056 992 512 992zM310.928 514.096 310.928 514.096c-41.248 3.616-79.2-25.536-86.384-66.336-7.696-43.792 21.632-85.696 65.408-93.424 44.064-7.76 85.824 22.304 93.424 65.424 3.744 21.2-1.008 42.592-13.36 60.24-12.352 17.664-30.848 29.456-52.064 33.168C315.616 513.6 313.264 513.888 310.928 514.096zM299.872 386.464c-1.376 0.112-2.784 0.304-4.176 0.544-25.744 4.544-43.024 29.216-38.48 54.992 4.24 24 26.544 41.152 50.8 39.024 0.016 0 0.016 0 0.016 0 1.392-0.128 2.768-0.304 4.176-0.544 12.448-2.192 23.344-9.136 30.608-19.52 7.264-10.384 10.064-22.976 7.872-35.456C346.448 401.504 324.128 384.336 299.872 386.464zM485.328 398.832c-45.904 4.016-88.16-28.432-96.16-73.872-4.176-23.616 1.104-47.44 14.88-67.072 13.744-19.648 34.336-32.752 57.936-36.912 48.976-8.592 95.568 24.816 104.032 72.816 8.608 48.752-24.08 95.408-72.816 104C490.56 398.256 487.952 398.592 485.328 398.832zM472.736 252.992c-1.664 0.144-3.312 0.352-4.976 0.656-14.896 2.624-27.872 10.88-36.544 23.264s-12 27.408-9.376 42.288c5.36 30.288 34.928 51.376 65.584 45.92 30.752-5.424 51.344-34.848 45.936-65.584C528.304 270.912 501.664 250.448 472.736 252.992zM689.488 438.08 689.488 438.08c-36.56 3.2-70.224-22.64-76.576-58.8-6.864-38.816 19.168-75.984 57.984-82.816 38.96-6.912 76.096 19.76 82.8 58 3.328 18.8-0.88 37.776-11.824 53.392-10.944 15.648-27.344 26.096-46.144 29.408C693.648 437.632 691.568 437.904 689.488 438.08zM680.032 328.688c-1.12 0.096-2.24 0.24-3.376 0.448-20.8 3.664-34.752 23.568-31.072 44.384 3.632 20.496 23.6 34.752 44.368 31.056 10.096-1.776 18.864-7.36 24.736-15.76 5.872-8.368 8.112-18.528 6.336-28.608C717.616 340.832 699.6 326.992 680.032 328.688zM392.816 751.392c-46.208 4.048-72.992-18.48-81.856-68.88-9.456-53.52 5.44-107.888 41.904-153.072 35.952-44.544 88.672-74.88 148.496-85.424 126.128-22.224 241.2 49.792 260.448 159.008 5.12 29.008 1.616 50.976-10.784 67.072-18.88 24.624-54.576 29.664-86.56 32.448 0 0 0 0-0.016 0-9.808 0.88-20.24 1.536-31.088 2.256-11.68 0.752-23.936 1.536-36.56 2.624-18.208 1.6-33.44 3.536-47.936 6.096-29.456 5.184-57.584 13.424-82.384 20.688C438.512 742.416 414.368 749.504 392.816 751.392zM526.944 474.08c-6.56 0.576-13.168 1.456-19.84 2.624-51.888 9.136-97.504 35.28-128.384 73.584-30.368 37.632-42.816 82.528-35.072 126.464 6.672 37.776 21.424 43.744 46.304 41.584 18.288-1.616 40.96-8.24 67.216-15.952 25.632-7.504 54.688-16 85.968-21.536 15.472-2.72 31.616-4.784 50.8-6.464 12.896-1.12 25.392-1.936 37.312-2.688 10.624-0.656 20.8-1.344 30.336-2.176l0.016 0c26.784-2.336 52.96-6.336 63.152-19.616 6.352-8.336 7.824-21.776 4.4-41.136C714.064 523.216 627.12 465.312 526.944 474.08z" /></svg>