<?xml version="1.0" standalone="no"?><!DOCTYPE svg PUBLIC "-//W3C//DTD SVG 1.1//EN" "http://www.w3.org/Graphics/SVG/1.1/DTD/svg11.dtd"><svg t="1713213449392" class="icon" viewBox="0 0 1024 1024" version="1.1" xmlns="http://www.w3.org/2000/svg" p-id="4276" xmlns:xlink="http://www.w3.org/1999/xlink" width="200" height="200"><path d="M256 170.666667a85.333333 85.333333 0 0 0-85.333333 85.333333v128h64V256a21.333333 21.333333 0 0 1 21.333333-21.333333h128V170.666667H256zM384 789.333333H256a21.333333 21.333333 0 0 1-21.333333-21.333333v-128H170.666667v128a85.333333 85.333333 0 0 0 85.333333 85.333333h128v-64zM640 853.333333v-64h128a21.333333 21.333333 0 0 0 21.333333-21.333333v-128H853.333333v128a85.333333 85.333333 0 0 1-85.333333 85.333333h-128zM768 170.666667a85.333333 85.333333 0 0 1 85.333333 85.333333v128h-64V256a21.333333 21.333333 0 0 0-21.333333-21.333333h-128V170.666667h128z" fill="#1E1E1E" p-id="4277"></path></svg>