<?xml version="1.0" encoding="UTF-8"?>
<svg xmlns="http://www.w3.org/2000/svg" xmlns:xlink="http://www.w3.org/1999/xlink" width="px" height="px" viewBox="0 0 150 150" version="1.1">
<g id="surface1">
<path style=" stroke:none;fill-rule:nonzero;fill:rgb(20%,20%,20%);fill-opacity:1;" d="M 75 0 C 33.578125 0 0 33.578125 0 75 C 0 116.421875 33.578125 150 75 150 C 116.417969 150 150 116.421875 150 75 C 150 33.578125 116.417969 0 75 0 Z M 75 145.3125 C 36.167969 145.3125 4.6875 113.832031 4.6875 75 C 4.6875 36.167969 36.167969 4.6875 75 4.6875 C 113.828125 4.6875 145.3125 36.167969 145.3125 75 C 145.3125 113.832031 113.828125 145.3125 75 145.3125 Z M 45.546875 75.308594 C 39.503906 75.835938 33.945312 71.566406 32.890625 65.589844 C 31.765625 59.175781 36.0625 53.035156 42.472656 51.90625 C 48.929688 50.769531 55.046875 55.171875 56.160156 61.488281 C 56.707031 64.59375 56.011719 67.726562 54.203125 70.3125 C 52.390625 72.898438 49.683594 74.628906 46.574219 75.171875 C 46.234375 75.234375 45.886719 75.277344 45.546875 75.308594 Z M 43.925781 56.609375 C 43.726562 56.628906 43.519531 56.65625 43.316406 56.691406 C 39.542969 57.355469 37.011719 60.96875 37.679688 64.746094 C 38.300781 68.261719 41.566406 70.773438 45.121094 70.460938 C 45.324219 70.445312 45.527344 70.417969 45.734375 70.382812 C 47.558594 70.0625 49.152344 69.042969 50.21875 67.523438 C 51.28125 66.003906 51.691406 64.15625 51.371094 62.328125 C 50.75 58.8125 47.480469 56.300781 43.925781 56.609375 Z M 71.09375 58.421875 C 64.367188 59.011719 58.179688 54.257812 57.007812 47.601562 C 56.394531 44.140625 57.167969 40.652344 59.1875 37.777344 C 61.199219 34.898438 64.214844 32.980469 67.671875 32.371094 C 74.847656 31.109375 81.671875 36.003906 82.914062 43.035156 C 84.171875 50.175781 79.386719 57.011719 72.246094 58.269531 C 71.859375 58.339844 71.476562 58.386719 71.09375 58.421875 Z M 69.25 37.058594 C 69.003906 37.082031 68.761719 37.109375 68.519531 37.15625 C 66.335938 37.539062 64.4375 38.75 63.167969 40.5625 C 61.894531 42.378906 61.410156 44.578125 61.792969 46.757812 C 62.578125 51.195312 66.910156 54.285156 71.398438 53.484375 C 75.90625 52.691406 78.921875 48.378906 78.128906 43.878906 C 77.386719 39.683594 73.484375 36.6875 69.25 37.058594 Z M 101 64.171875 C 95.644531 64.640625 90.710938 60.855469 89.78125 55.558594 C 88.777344 49.871094 92.589844 44.429688 98.277344 43.425781 C 103.984375 42.414062 109.421875 46.320312 110.40625 51.921875 C 110.890625 54.675781 110.277344 57.457031 108.671875 59.746094 C 107.070312 62.035156 104.667969 63.566406 101.914062 64.050781 C 101.609375 64.105469 101.304688 64.144531 101 64.171875 Z M 99.613281 48.148438 C 99.449219 48.160156 99.285156 48.183594 99.121094 48.214844 C 96.074219 48.75 94.027344 51.664062 94.566406 54.714844 C 95.101562 57.71875 98.023438 59.804688 101.066406 59.265625 C 102.546875 59.003906 103.832031 58.1875 104.691406 56.957031 C 105.550781 55.730469 105.878906 54.242188 105.617188 52.765625 C 105.121094 49.925781 102.480469 47.898438 99.613281 48.148438 Z M 57.542969 110.066406 C 50.773438 110.660156 46.847656 107.359375 45.550781 99.976562 C 44.164062 92.136719 46.347656 84.171875 51.6875 77.554688 C 56.957031 71.03125 64.679688 66.585938 73.441406 65.042969 C 91.917969 61.785156 108.773438 72.335938 111.59375 88.332031 C 112.34375 92.582031 111.828125 95.800781 110.011719 98.160156 C 107.246094 101.765625 102.019531 102.503906 97.332031 102.910156 C 95.894531 103.039062 94.367188 103.136719 92.777344 103.242188 C 91.066406 103.351562 89.269531 103.46875 87.421875 103.625 C 84.753906 103.859375 82.523438 104.144531 80.398438 104.519531 C 76.085938 105.277344 71.964844 106.484375 68.332031 107.550781 C 64.234375 108.753906 60.699219 109.789062 57.542969 110.066406 Z M 77.1875 69.445312 C 76.226562 69.53125 75.261719 69.660156 74.28125 69.828125 C 66.683594 71.167969 60 74.996094 55.476562 80.609375 C 51.027344 86.121094 49.203125 92.699219 50.339844 99.132812 C 51.316406 104.667969 53.476562 105.542969 57.121094 105.226562 C 59.800781 104.988281 63.121094 104.019531 66.96875 102.886719 C 70.722656 101.789062 74.980469 100.542969 79.5625 99.734375 C 81.828125 99.335938 84.191406 99.03125 87.003906 98.785156 C 88.890625 98.621094 90.722656 98.503906 92.46875 98.394531 C 94.023438 98.296875 95.515625 98.195312 96.910156 98.074219 L 96.914062 98.074219 C 100.835938 97.730469 104.671875 97.144531 106.164062 95.199219 C 107.09375 93.980469 107.3125 92.011719 106.808594 89.175781 C 104.597656 76.644531 91.863281 68.160156 77.1875 69.445312 Z M 77.1875 69.445312 "/>
</g>
</svg>
