<?xml version="1.0" encoding="UTF-8"?>
<svg xmlns="http://www.w3.org/2000/svg" xmlns:xlink="http://www.w3.org/1999/xlink" width="px" height="px" viewBox="0 0 150 150" version="1.1">
<g id="surface1">
<path style=" stroke:none;fill-rule:nonzero;fill:rgb(20%,20%,20%);fill-opacity:1;" d="M 75 0 C 33.578125 0 0 33.578125 0 75 C 0 116.421875 33.578125 150 75 150 C 116.417969 150 150 116.421875 150 75 C 150 33.578125 116.417969 0 75 0 Z M 75 145.3125 C 36.167969 145.3125 4.6875 113.832031 4.6875 75 C 4.6875 36.167969 36.167969 4.6875 75 4.6875 C 113.828125 4.6875 145.3125 36.167969 145.3125 75 C 145.3125 113.832031 113.828125 145.3125 75 145.3125 Z M 116.015625 72.65625 L 33.984375 72.65625 C 32.6875 72.65625 31.640625 73.703125 31.640625 75 C 31.640625 76.296875 32.6875 77.34375 33.984375 77.34375 L 116.015625 77.34375 C 117.3125 77.34375 118.359375 76.296875 118.359375 75 C 118.359375 73.703125 117.3125 72.65625 116.015625 72.65625 Z M 77.34375 116.015625 L 77.34375 33.984375 C 77.34375 32.6875 76.296875 31.640625 75 31.640625 C 73.703125 31.640625 72.65625 32.6875 72.65625 33.984375 L 72.65625 116.015625 C 72.65625 117.3125 73.703125 118.359375 75 118.359375 C 76.296875 118.359375 77.34375 117.3125 77.34375 116.015625 Z M 77.34375 116.015625 "/>
</g>
</svg>
