<?xml version="1.0" encoding="UTF-8"?>
<svg xmlns="http://www.w3.org/2000/svg" xmlns:xlink="http://www.w3.org/1999/xlink" width="px" height="px" viewBox="0 0 150 150" version="1.1">
<g id="surface1">
<path style=" stroke:none;fill-rule:nonzero;fill:rgb(20%,20%,20%);fill-opacity:1;" d="M 75 0 C 33.578125 0 0 33.578125 0 75 C 0 116.421875 33.578125 150 75 150 C 116.417969 150 150 116.421875 150 75 C 150 33.578125 116.417969 0 75 0 Z M 75 145.3125 C 36.167969 145.3125 4.6875 113.832031 4.6875 75 C 4.6875 36.167969 36.167969 4.6875 75 4.6875 C 113.828125 4.6875 145.3125 36.167969 145.3125 75 C 145.3125 113.832031 113.828125 145.3125 75 145.3125 Z M 63.117188 36.859375 C 62.199219 35.945312 60.71875 35.945312 59.804688 36.859375 C 58.886719 37.777344 58.886719 39.261719 59.804688 40.175781 L 94.628906 75 L 59.804688 109.828125 C 58.886719 110.746094 58.886719 112.226562 59.804688 113.140625 C 60.71875 114.058594 62.199219 114.058594 63.117188 113.140625 L 99.578125 76.679688 C 100.042969 76.21875 100.269531 75.605469 100.261719 75.003906 C 100.269531 74.394531 100.042969 73.785156 99.578125 73.320312 Z M 63.117188 36.859375 "/>
</g>
</svg>
