<?xml version="1.0" encoding="UTF-8"?>
<svg xmlns="http://www.w3.org/2000/svg" xmlns:xlink="http://www.w3.org/1999/xlink" width="px" height="px" viewBox="0 0 150 150" version="1.1">
<g id="surface1">
<path style=" stroke:none;fill-rule:nonzero;fill:rgb(20%,20%,20%);fill-opacity:1;" d="M 75 0 C 33.578125 0 0 33.578125 0 75 C 0 116.421875 33.578125 150 75 150 C 116.417969 150 150 116.421875 150 75 C 150 33.578125 116.417969 0 75 0 Z M 75 145.3125 C 36.167969 145.3125 4.6875 113.832031 4.6875 75 C 4.6875 36.167969 36.167969 4.6875 75 4.6875 C 113.828125 4.6875 145.3125 36.167969 145.3125 75 C 145.3125 113.832031 113.828125 145.3125 75 145.3125 Z M 100.925781 48.0625 L 105.632812 39.90625 C 106.28125 38.785156 105.894531 37.355469 104.773438 36.707031 C 103.65625 36.058594 102.222656 36.441406 101.574219 37.5625 L 96.609375 46.164062 C 90.796875 43.894531 84.269531 42.535156 77.347656 42.277344 L 77.347656 32.226562 C 77.347656 30.933594 76.296875 29.882812 75.003906 29.882812 C 73.707031 29.882812 72.660156 30.933594 72.660156 32.226562 L 72.660156 42.277344 C 65.808594 42.53125 59.347656 43.867188 53.582031 46.097656 L 48.65625 37.5625 C 48.007812 36.441406 46.574219 36.058594 45.453125 36.707031 C 44.335938 37.351562 43.949219 38.785156 44.597656 39.90625 L 49.257812 47.980469 C 36.535156 54.265625 28.125 65.0625 28.125 77.34375 C 28.125 96.757812 49.109375 112.5 75 112.5 C 100.890625 112.5 121.875 96.757812 121.875 77.34375 C 121.875 65.117188 113.546875 54.359375 100.925781 48.0625 Z M 75 107.8125 C 51.699219 107.8125 32.8125 94.171875 32.8125 77.34375 C 32.8125 66.777344 40.269531 57.472656 51.578125 52.003906 L 51.625 52.085938 L 52.351562 51.664062 C 58.902344 48.648438 66.65625 46.875 75 46.875 C 83.738281 46.875 91.859375 48.792969 98.59375 52.082031 L 98.597656 52.085938 C 109.8125 57.5625 117.1875 66.832031 117.1875 77.34375 C 117.1875 94.171875 98.300781 107.8125 75 107.8125 Z M 75 98.4375 C 63.371094 98.4375 53.90625 88.976562 53.90625 77.34375 C 53.90625 65.714844 63.371094 56.25 75 56.25 C 86.632812 56.25 96.09375 65.714844 96.09375 77.34375 C 96.09375 88.976562 86.632812 98.4375 75 98.4375 Z M 75 60.9375 C 65.953125 60.9375 58.59375 68.296875 58.59375 77.34375 C 58.59375 86.386719 65.953125 93.75 75 93.75 C 84.042969 93.75 91.40625 86.386719 91.40625 77.34375 C 91.40625 68.296875 84.042969 60.9375 75 60.9375 Z M 75 60.9375 "/>
</g>
</svg>
