<?xml version="1.0" encoding="UTF-8"?>
<svg xmlns="http://www.w3.org/2000/svg" xmlns:xlink="http://www.w3.org/1999/xlink" width="px" height="px" viewBox="0 0 150 150" version="1.1">
<g id="surface1">
<path style=" stroke:none;fill-rule:nonzero;fill:rgb(20%,20%,20%);fill-opacity:1;" d="M 75 0 C 33.578125 0 0 33.578125 0 75 C 0 116.421875 33.578125 150 75 150 C 116.417969 150 150 116.421875 150 75 C 150 33.578125 116.417969 0 75 0 Z M 75 145.3125 C 36.167969 145.3125 4.6875 113.832031 4.6875 75 C 4.6875 36.167969 36.167969 4.6875 75 4.6875 C 113.828125 4.6875 145.3125 36.167969 145.3125 75 C 145.3125 113.832031 113.828125 145.3125 75 145.3125 Z M 115.84375 83.152344 C 114.507812 83.152344 113.425781 84.234375 113.425781 85.566406 C 108.804688 102.464844 93.390625 114.898438 75.027344 114.898438 C 58.300781 114.898438 44.042969 104.558594 38.144531 89.949219 L 45.894531 93.5625 C 47.070312 94.109375 48.464844 93.601562 49.011719 92.429688 C 49.554688 91.257812 49.050781 89.863281 47.878906 89.3125 L 35.347656 83.472656 C 35.023438 83.292969 34.667969 83.175781 34.273438 83.164062 C 34.257812 83.164062 34.242188 83.152344 34.226562 83.152344 C 34.222656 83.152344 34.21875 83.152344 34.214844 83.152344 C 34.1875 83.152344 34.164062 83.167969 34.132812 83.171875 C 33.253906 83.175781 32.414062 83.660156 32.019531 84.507812 L 26.078125 97.25 C 25.53125 98.425781 26.035156 99.820312 27.207031 100.367188 C 28.378906 100.914062 29.777344 100.40625 30.324219 99.234375 L 33.816406 91.746094 C 40.417969 108.058594 56.347656 119.59375 75.027344 119.59375 C 95.992188 119.59375 113.527344 105.085938 118.257812 85.570312 C 118.257812 84.230469 117.175781 83.148438 115.84375 83.152344 Z M 122.792969 49.636719 C 121.625 49.089844 120.226562 49.59375 119.679688 50.769531 L 116.21875 58.191406 C 109.597656 41.914062 93.683594 30.414062 75.027344 30.414062 C 54.0625 30.414062 36.53125 44.917969 31.796875 64.433594 C 31.796875 65.765625 32.878906 66.847656 34.214844 66.847656 C 35.550781 66.847656 36.632812 65.765625 36.628906 64.433594 C 41.25 47.539062 56.667969 35.101562 75.027344 35.101562 C 91.765625 35.101562 106.03125 45.457031 111.925781 60.085938 L 104.101562 56.433594 C 102.929688 55.890625 101.535156 56.394531 100.988281 57.566406 C 100.445312 58.742188 100.949219 60.136719 102.121094 60.683594 L 114.828125 66.605469 C 115.019531 66.695312 115.234375 66.730469 115.445312 66.765625 C 115.570312 66.789062 115.6875 66.835938 115.808594 66.835938 C 115.820312 66.835938 115.828125 66.84375 115.839844 66.84375 C 115.933594 66.84375 116.011719 66.800781 116.101562 66.792969 C 116.316406 66.769531 116.523438 66.746094 116.722656 66.664062 C 116.863281 66.613281 116.972656 66.519531 117.097656 66.4375 C 117.222656 66.359375 117.355469 66.292969 117.464844 66.191406 C 117.742188 65.9375 117.953125 65.625 118.085938 65.265625 L 123.921875 52.742188 C 124.472656 51.578125 123.96875 50.183594 122.792969 49.636719 Z M 122.792969 49.636719 "/>
</g>
</svg>
