<?xml version="1.0" encoding="UTF-8"?>
<svg xmlns="http://www.w3.org/2000/svg" xmlns:xlink="http://www.w3.org/1999/xlink" width="px" height="px" viewBox="0 0 150 150" version="1.1">
<g id="surface1">
<path style=" stroke:none;fill-rule:nonzero;fill:rgb(20%,20%,20%);fill-opacity:1;" d="M 75 0 C 33.578125 0 0 33.578125 0 75 C 0 116.421875 33.578125 150 75 150 C 116.417969 150 150 116.421875 150 75 C 150 33.578125 116.417969 0 75 0 Z M 75 145.3125 C 36.167969 145.3125 4.6875 113.832031 4.6875 75 C 4.6875 36.167969 36.167969 4.6875 75 4.6875 C 113.828125 4.6875 145.3125 36.167969 145.3125 75 C 145.3125 113.832031 113.828125 145.3125 75 145.3125 Z M 119.988281 67.832031 C 120.207031 67.425781 120.285156 66.984375 120.253906 66.558594 C 120.25 66.496094 120.226562 66.4375 120.21875 66.378906 C 120.191406 66.214844 120.160156 66.054688 120.101562 65.902344 C 120.089844 65.878906 120.09375 65.855469 120.085938 65.835938 C 120.0625 65.78125 120.023438 65.738281 119.996094 65.6875 C 119.949219 65.597656 119.921875 65.503906 119.863281 65.421875 L 105.558594 44.085938 C 105.507812 44.007812 105.4375 43.949219 105.378906 43.878906 C 105.332031 43.824219 105.292969 43.769531 105.242188 43.722656 C 105.144531 43.625 105.03125 43.542969 104.914062 43.464844 C 104.867188 43.429688 104.820312 43.390625 104.769531 43.359375 C 104.628906 43.28125 104.476562 43.222656 104.324219 43.167969 C 104.285156 43.15625 104.253906 43.140625 104.21875 43.128906 C 104.023438 43.074219 103.820312 43.046875 103.609375 43.046875 L 46.386719 43.046875 C 46.175781 43.046875 45.972656 43.074219 45.78125 43.128906 C 45.734375 43.140625 45.695312 43.164062 45.652344 43.175781 C 45.507812 43.226562 45.359375 43.28125 45.230469 43.355469 C 45.167969 43.390625 45.113281 43.4375 45.054688 43.480469 C 44.949219 43.550781 44.847656 43.625 44.757812 43.714844 C 44.699219 43.769531 44.652344 43.835938 44.597656 43.894531 C 44.546875 43.960938 44.484375 44.015625 44.4375 44.082031 L 30.132812 65.421875 C 30.078125 65.503906 30.042969 65.597656 30.003906 65.683594 C 29.972656 65.734375 29.933594 65.777344 29.910156 65.832031 C 29.902344 65.855469 29.902344 65.878906 29.894531 65.898438 C 29.835938 66.050781 29.804688 66.207031 29.78125 66.371094 C 29.769531 66.429688 29.75 66.492188 29.746094 66.554688 C 29.730469 66.757812 29.746094 66.960938 29.78125 67.164062 C 29.785156 67.179688 29.78125 67.195312 29.785156 67.210938 C 29.832031 67.421875 29.902344 67.632812 30.007812 67.832031 C 30.007812 67.832031 30.015625 67.835938 30.015625 67.835938 C 30.035156 67.878906 30.070312 67.90625 30.09375 67.949219 C 30.191406 68.101562 30.289062 68.25 30.414062 68.375 C 30.417969 68.378906 30.421875 68.386719 30.425781 68.390625 L 73.34375 110.957031 C 73.386719 110.996094 73.4375 111.015625 73.480469 111.054688 C 73.554688 111.113281 73.621094 111.179688 73.703125 111.230469 C 73.722656 111.246094 73.738281 111.269531 73.757812 111.28125 C 73.796875 111.304688 73.835938 111.308594 73.871094 111.328125 C 73.953125 111.371094 74.03125 111.410156 74.117188 111.445312 C 74.207031 111.484375 74.296875 111.511719 74.394531 111.539062 C 74.46875 111.558594 74.539062 111.578125 74.617188 111.589844 C 74.695312 111.601562 74.773438 111.609375 74.855469 111.613281 C 74.902344 111.617188 74.949219 111.636719 75 111.636719 C 75.050781 111.636719 75.09375 111.617188 75.144531 111.613281 C 75.226562 111.609375 75.300781 111.601562 75.382812 111.589844 C 75.457031 111.578125 75.53125 111.558594 75.605469 111.539062 C 75.703125 111.511719 75.792969 111.484375 75.882812 111.445312 C 75.964844 111.410156 76.042969 111.375 76.121094 111.332031 C 76.160156 111.308594 76.203125 111.304688 76.238281 111.28125 C 76.261719 111.265625 76.277344 111.242188 76.296875 111.230469 C 76.375 111.179688 76.445312 111.113281 76.519531 111.050781 C 76.5625 111.015625 76.613281 110.996094 76.652344 110.957031 L 119.570312 68.390625 C 119.574219 68.386719 119.578125 68.382812 119.582031 68.375 C 119.71875 68.238281 119.832031 68.078125 119.933594 67.902344 C 119.949219 67.878906 119.96875 67.863281 119.980469 67.839844 C 119.984375 67.839844 119.984375 67.835938 119.988281 67.832031 Z M 65.085938 69.074219 L 86.046875 69.074219 L 75 101.9375 L 63.953125 69.074219 Z M 84.910156 64.386719 L 65.085938 64.386719 L 75 49.601562 L 78.308594 54.53125 Z M 96.046875 60.882812 L 103.613281 49.601562 L 113.523438 64.386719 L 93.699219 64.386719 Z M 99.21875 47.734375 L 89.308594 62.519531 L 83.328125 53.605469 L 79.394531 47.734375 Z M 70.605469 47.734375 L 65.324219 55.613281 L 60.695312 62.519531 L 57.6875 58.035156 L 50.78125 47.734375 Z M 46.386719 49.601562 L 54.878906 62.269531 L 56.300781 64.386719 L 36.472656 64.386719 Z M 37.769531 69.074219 L 59.007812 69.074219 L 69.625 100.667969 Z M 80.375 100.664062 L 90.992188 69.074219 L 112.226562 69.074219 Z M 80.375 100.664062 "/>
</g>
</svg>
