<?xml version="1.0" encoding="UTF-8"?>
<svg xmlns="http://www.w3.org/2000/svg" xmlns:xlink="http://www.w3.org/1999/xlink" width="px" height="px" viewBox="0 0 150 150" version="1.1">
<g id="surface1">
<path style=" stroke:none;fill-rule:nonzero;fill:rgb(20%,20%,20%);fill-opacity:1;" d="M 75 0 C 33.578125 0 0 33.578125 0 75 C 0 116.421875 33.578125 150 75 150 C 116.417969 150 150 116.421875 150 75 C 150 33.578125 116.417969 0 75 0 Z M 75 145.3125 C 36.167969 145.3125 4.6875 113.832031 4.6875 75 C 4.6875 36.167969 36.167969 4.6875 75 4.6875 C 113.828125 4.6875 145.3125 36.167969 145.3125 75 C 145.3125 113.832031 113.828125 145.3125 75 145.3125 Z M 75 30.46875 C 50.40625 30.46875 30.46875 50.40625 30.46875 75 C 30.46875 99.59375 50.40625 119.53125 75 119.53125 C 99.59375 119.53125 119.53125 99.59375 119.53125 75 C 119.53125 50.40625 99.59375 30.46875 75 30.46875 Z M 114.722656 72.65625 L 106.378906 72.65625 C 105.554688 56.882812 96.542969 43.3125 83.488281 36.085938 C 100.667969 39.816406 113.675781 54.625 114.722656 72.65625 Z M 72.65625 77.34375 L 72.65625 111.535156 C 59.234375 105.699219 49.699219 92.6875 48.804688 77.34375 Z M 48.804688 72.65625 C 49.699219 57.3125 59.234375 44.300781 72.65625 38.464844 L 72.65625 72.65625 Z M 77.34375 77.34375 L 101.679688 77.34375 C 100.773438 92.875 91.019531 106.023438 77.34375 111.757812 Z M 77.34375 72.65625 L 77.34375 38.242188 C 91.019531 43.976562 100.773438 57.125 101.679688 72.65625 Z M 67.289062 35.917969 C 54.074219 43.105469 44.929688 56.761719 44.101562 72.65625 L 35.273438 72.65625 C 36.34375 54.347656 49.726562 39.363281 67.289062 35.917969 Z M 35.273438 77.34375 L 44.101562 77.34375 C 44.933594 93.238281 54.078125 106.894531 67.292969 114.085938 C 49.726562 110.636719 36.34375 95.652344 35.273438 77.34375 Z M 83.488281 113.914062 C 96.542969 106.6875 105.558594 93.117188 106.378906 77.34375 L 114.726562 77.34375 C 113.675781 95.375 100.667969 110.183594 83.488281 113.914062 Z M 110.167969 47.75 C 109.210938 46.511719 108.191406 45.324219 107.109375 44.195312 C 100.832031 48.816406 89.46875 52.34375 75.019531 52.34375 C 60.554688 52.34375 49.179688 48.808594 42.90625 44.175781 C 41.820312 45.304688 40.808594 46.492188 39.847656 47.730469 C 47.339844 53.375 60.164062 57.03125 75.015625 57.03125 C 89.855469 57.03125 102.671875 53.386719 110.167969 47.75 Z M 38.765625 100.824219 C 39.664062 102.085938 40.632812 103.289062 41.652344 104.445312 C 47.59375 99.34375 59.554688 95.316406 75.015625 95.316406 C 90.460938 95.316406 102.414062 99.335938 108.363281 104.429688 C 109.386719 103.273438 110.351562 102.066406 111.246094 100.808594 C 103.949219 94.671875 90.617188 90.628906 75.015625 90.628906 C 59.402344 90.625 46.058594 94.679688 38.765625 100.824219 Z M 38.765625 100.824219 "/>
</g>
</svg>
