<?xml version="1.0" standalone="no"?><!DOCTYPE svg PUBLIC "-//W3C//DTD SVG 1.1//EN" "http://www.w3.org/Graphics/SVG/1.1/DTD/svg11.dtd"><svg t="1657142177421" class="icon" viewBox="0 0 1024 1024" version="1.1" xmlns="http://www.w3.org/2000/svg" p-id="43648" xmlns:xlink="http://www.w3.org/1999/xlink" width="200" height="200"><defs><style type="text/css">@font-face { font-family: feedback-iconfont; src: url("//at.alicdn.com/t/font_1031158_u69w8yhxdu.woff2?t=1630033759944") format("woff2"), url("//at.alicdn.com/t/font_1031158_u69w8yhxdu.woff?t=1630033759944") format("woff"), url("//at.alicdn.com/t/font_1031158_u69w8yhxdu.ttf?t=1630033759944") format("truetype"); }
</style></defs><path d="M350.2 24.7s0.1 0 0.1 0.1c-0.2-0.1-0.4-0.2-0.6-0.2 0.2 0 0.4 0 0.5 0.1zM340.1 26.7l-0.3 0.3 0.1-0.1 0.1-0.1 0.1-0.1zM342.3 25l-0.6 0.3c0.1-0.1 0.3-0.2 0.4-0.3 0.1 0.1 0.1 0 0.2 0zM343.4 24.5h-0.1 0.1zM343.9 24.3h-0.1 0.1z" fill="#222222" p-id="43649"></path><path d="M340.1 26.7l-0.3 0.3c0-0.1 0.1-0.1 0.2-0.2l0.1-0.1zM342.3 25l-0.6 0.3c0.1-0.1 0.3-0.2 0.4-0.3 0.1 0.1 0.1 0 0.2 0zM343.4 24.5h-0.1 0.1zM343.9 24.3h-0.1 0.1zM350.2 24.7s0.1 0 0.1 0.1c-0.2-0.1-0.4-0.2-0.6-0.2 0.2 0 0.4 0 0.5 0.1z" fill="#222222" p-id="43650"></path><path d="M907.5 678.3l-50.4-137.1-36.3-269.8c-0.6-4.5-4.4-7.8-8.9-7.8h-37.8V252.2c0-3.5-2-6.6-5.1-8.1L737.8 229c-1.2-0.6-2.6-0.9-3.9-0.9h-7.4L724 113.3c0-1.2-0.3-2.4-0.8-3.5l-35.7-80.5c0-0.1-0.1-0.2-0.1-0.2s0-0.1-0.1-0.1c0-0.1-0.1-0.2-0.2-0.3 0 0 0-0.1-0.1-0.1 0 0 0-0.1-0.1-0.1 0 0 0-0.1-0.1-0.1 0-0.1-0.1-0.1-0.1-0.2l-0.1-0.1c0-0.1-0.1-0.2-0.2-0.2 0 0 0-0.1-0.1-0.1v-0.1l-0.1-0.1c0-0.1-0.1-0.1-0.2-0.2 0 0 0-0.1-0.1-0.1l-0.2-0.2-0.1-0.1c-0.1-0.1-0.2-0.2-0.4-0.3-0.1-0.1-0.2-0.1-0.2-0.2l-0.1-0.1h-0.1l-0.1-0.1-0.1-0.1c-0.1-0.1-0.2-0.1-0.3-0.2-0.1 0-0.1-0.1-0.2-0.1-0.2-0.1-0.4-0.2-0.5-0.3 0 0-0.1-0.1-0.2-0.1s-0.1-0.1-0.2-0.1-0.2-0.1-0.2-0.1c-0.1 0-0.2-0.1-0.3-0.1 0 0-0.1 0-0.2-0.1-0.1 0-0.2-0.1-0.3-0.1h-0.1c-0.1 0-0.1 0-0.2-0.1h-0.1c-0.1 0-0.3-0.1-0.4-0.1h-0.6l-54-11.4c-2.9-0.6-5.9 0.2-8 2.3L580.2 51c-0.9 0.9-1.7 1.9-2.1 3.1L513 210.6l-65.2-156.5c-0.5-1.2-1.2-2.2-2.1-3.1l-38.3-36.2c-2.1-2-5.2-2.9-8-2.3L344.9 24c-0.2 0-0.3 0.1-0.5 0.1h-0.2c-0.1 0-0.1 0-0.2 0.1h-0.3c-0.1 0-0.1 0-0.2 0.1-0.1 0-0.2 0.1-0.3 0.1-0.2 0.1-0.4 0.2-0.5 0.3l-0.6 0.3c-0.2 0.1-0.3 0.2-0.5 0.3l-0.1 0.1c-0.1 0.1-0.3 0.2-0.4 0.3l-0.3 0.3c-0.1 0.1-0.2 0.1-0.2 0.2l-0.3 0.3-0.3 0.3c-0.1 0.1-0.2 0.3-0.3 0.4-0.1 0.1-0.1 0.2-0.2 0.2v0.1c-0.1 0.1-0.2 0.3-0.3 0.5 0 0.1-0.1 0.1-0.1 0.2-0.1 0.1-0.1 0.3-0.2 0.4 0 0 0 0.1-0.1 0.2-0.1 0.2-0.1 0.4-0.1 0.4l-35.5 80.1c-0.5 1.1-0.8 2.3-0.8 3.5L299.4 228H292c-1.4 0-2.7 0.3-3.9 0.9L256.9 244c-3.1 1.5-5.1 4.7-5.1 8.1v11.4H214c-4.5 0-8.3 3.3-8.9 7.8l-36.3 269.8-50.4 137.1c-0.4 1.1-0.6 2.4-0.5 3.6l9.1 171.7v1.1c0 0.2 0.1 0.4 0.1 0.6v0.3l26 128.7c0.3 1.5 1 2.9 2 4.1l18.2 21c1.7 2 4.2 3.1 6.8 3.1h665.6c2.6 0 5.1-1.1 6.8-3.1l18.2-21c1-1.2 1.7-2.6 2-4.1l26-128.7c0-0.2 0.1-0.5 0.1-0.7s0-0.5 0.1-0.7l9.1-172.2c0.1-1.2-0.1-2.4-0.5-3.6zM706.1 115.5l2.4 112.6h-36.6l-2.4-114.8c0-1-0.2-2-0.6-2.9l-15.4-41.7 22.7-20.7 29.9 67.5zM653.9 228h-72.5l59.3-141.9 10.7 29.1L653.9 228zM594 62.8l33.5-31.6 32.7 6.9-29.2 26.6c-1 0.9-1.7 2-2.3 3.2L561.9 228h-13.2l-18.6-11.7L594 62.8z m-68.9 373h-24.2l-2.9-5.3c-0.1-0.1-0.2-0.3-0.2-0.4l-8.3-15.2V246.1h47v168.8l-11.4 20.9z m9.5 19.3c0 12.1-9.7 22-21.6 22s-21.6-9.9-21.6-22c0-0.8 0-1.5 0.1-2.3 1.2 0.6 2.6 1 4 1h34.9c1.4 0 2.8-0.3 4-1 0.1 0.8 0.2 1.5 0.2 2.3zM511.9 227.6c0.4-0.2 0.7-0.5 1.1-0.8 0.3 0.3 0.7 0.5 1.1 0.8l0.7 0.4h-3.5l0.6-0.4zM398.4 31.2l33.5 31.6 63.9 153.5L477.2 228H464l-66.9-160.1c-0.5-1.2-1.3-2.3-2.3-3.2l-29.2-26.6 32.8-6.9zM444.5 228H372l2.4-112.9 10.8-29.1L444.5 228zM319.8 115.5l29.9-67.5 22.7 20.6-15.4 41.8c-0.3 0.9-0.5 1.9-0.6 2.9L354 228h-36.6l2.4-112.5zM269.7 257.8L294 246.1h177.4v171.1c0 1.5 0.4 3 1.1 4.3l6.8 12.4c-3.9 6.3-6 13.6-6 21.2 0 22.1 17.8 40 39.7 40s39.7-18 39.7-40c0-7.5-2.1-14.9-6-21.2l6.8-12.4c0.7-1.3 1.1-2.8 1.1-4.3V246.1H732l24.2 11.7v248l-31.5 35.8H301.2l-31.5-35.8v-248z m585.9 720.6l-13.9 16.1H184.3l-14-16.1-22.1-109.5 14 6.1c1.1 0.5 2.4 0.8 3.6 0.8H860c1.3 0 2.5-0.3 3.6-0.8l14-6.1-22 109.5z m25.6-130.8l-23.1 10.1H167.7l-23.1-10.1-8.6-164.8 50-136.3c0.2-0.6 0.4-1.3 0.5-1.9l35.3-263h29.9v227.6c0 2.2 0.8 4.3 2.2 6l36.4 41.4c1.7 2 4.2 3.1 6.8 3.1h431.6c2.6 0 5.1-1.1 6.8-3.1l36.4-41.4c1.4-1.6 2.2-3.8 2.2-6V281.6H804l35.3 263c0.1 0.7 0.2 1.3 0.5 1.9l50.1 136.3-8.7 164.8z" fill="#222222" p-id="43651"></path><path d="M686.6 27.6s-0.1-0.1 0 0M687.6 29.4c0-0.1 0-0.1 0 0 0-0.1 0 0 0 0z" fill="#222222" p-id="43652"></path><path d="M687.6 29.4c0-0.1 0-0.1 0 0 0-0.1 0 0 0 0z" fill="#222222" p-id="43653"></path></svg>