<?xml version="1.0" standalone="no"?><!DOCTYPE svg PUBLIC "-//W3C//DTD SVG 1.1//EN" "http://www.w3.org/Graphics/SVG/1.1/DTD/svg11.dtd"><svg t="1657146930101" class="icon" viewBox="0 0 1024 1024" version="1.1" xmlns="http://www.w3.org/2000/svg" p-id="1195" xmlns:xlink="http://www.w3.org/1999/xlink" width="200" height="200"><defs><style type="text/css">@font-face { font-family: feedback-iconfont; src: url("//at.alicdn.com/t/font_1031158_u69w8yhxdu.woff2?t=1630033759944") format("woff2"), url("//at.alicdn.com/t/font_1031158_u69w8yhxdu.woff?t=1630033759944") format("woff"), url("//at.alicdn.com/t/font_1031158_u69w8yhxdu.ttf?t=1630033759944") format("truetype"); }
</style></defs><path d="M512 0C229.216 0 0 229.216 0 512c0 282.768 229.216 512 512 512 282.752 0 512-229.232 512-512C1024 229.216 794.752 0 512 0zM512 992C246.896 992 32 777.088 32 512 32 246.896 246.896 32 512 32c265.056 0 480 214.896 480 480C992 777.088 777.056 992 512 992z" p-id="1196"></path><path d="M515.76 801.184c-56.496 0-124.736-54.656-144.304-71.408-74.288-63.552-116.88-154.736-116.88-250.16 0-141.6 115.472-256.8 257.424-256.8 141.936 0 257.424 115.2 257.424 256.8 0 95.44-42.608 186.64-116.896 250.16C613.68 763.024 563.04 801.184 515.76 801.184zM512 254.816c-124.304 0-225.424 100.848-225.424 224.8 0 86.064 38.528 168.384 105.68 225.856 34.336 29.392 87.28 63.712 123.504 63.712 41.52 0 95.6-46.304 115.952-63.712 67.168-57.456 105.696-139.76 105.696-225.856C737.424 355.664 636.304 254.816 512 254.816z" p-id="1197"></path><path d="M256 454.672" p-id="1198"></path><path d="M512 513.648c-50.432 0-91.456-41.008-91.456-91.424 0-50.432 41.024-91.456 91.456-91.456 50.416 0 91.456 41.024 91.456 91.456C603.456 472.624 562.416 513.648 512 513.648zM512 362.752c-32.784 0-59.456 26.672-59.456 59.456 0 32.768 26.672 59.424 59.456 59.424s59.456-26.656 59.456-59.424C571.456 389.424 544.784 362.752 512 362.752z" p-id="1199"></path></svg>