<?xml version="1.0" standalone="no"?><!DOCTYPE svg PUBLIC "-//W3C//DTD SVG 1.1//EN" "http://www.w3.org/Graphics/SVG/1.1/DTD/svg11.dtd"><svg class="icon" width="200px" height="200.00px" viewBox="0 0 1024 1024" version="1.1" xmlns="http://www.w3.org/2000/svg"><path fill="#333333" d="M512 0C229.216 0 0 229.216 0 512c0 282.768 229.216 512 512 512 282.752 0 512-229.232 512-512C1024 229.216 794.752 0 512 0zM512 992C246.896 992 32 777.088 32 512 32 246.896 246.896 32 512 32c265.056 0 480 214.896 480 480C992 777.088 777.056 992 512 992zM768.512 260.88c-9.184-8.816-22.272-11.072-33.44-6.88L234.4 442.336c-10.528 3.968-18.624 13.36-20.384 25.264s3.28 23.248 12.192 30.096l135.776 104.048 0 104.752c0 13.136 8.144 25.456 21.216 30.128 13.072 4.688 27.184 0.336 35.52-9.808l41.12-50.08 115.792 88.72c7.936 6.08 18.592 8.336 28.88 5.184s17.808-11.024 20.976-20.512l151.232-456.08C780.464 282.688 777.696 269.712 768.512 260.88zM422.352 671.936c-4.176 5.072-11.216 7.248-17.76 4.912s-10.608-8.496-10.608-15.056l0-35.536 40.432 30.992L422.352 671.936zM735.792 315.76l-133.616 402.944c-1.584 4.736-5.344 8.672-10.48 10.256s-10.464 0.448-14.432-2.592l-164.352-125.936 136.176-108.72c6.912-5.52 8.032-15.584 2.512-22.48s-15.584-8.032-22.48-2.512l-142.368 113.68-118.192-90.56c-4.464-3.424-6.976-9.088-6.096-15.04s4.944-10.656 10.192-12.64l442.32-166.384c5.6-2.096 12.144-0.976 16.736 3.44C736.288 303.6 737.664 310.096 735.792 315.76z" /></svg>