<svg width="1024" height="1024" xmlns="http://www.w3.org/2000/svg" version="1.1" class="icon">

 <g>
  <title>Layer 1</title>
  <path id="svg_1" d="m512,0c-282.784,0 -512,229.216 -512,512c0,282.768 229.216,512 512,512c282.752,0 512,-229.232 512,-512c0,-282.784 -229.248,-512 -512,-512zm0,992c-265.104,0 -480,-214.912 -480,-480c0,-265.104 214.896,-480 480,-480c265.056,0 480,214.896 480,480c0,265.088 -214.944,480 -480,480zm88.992,-672l87.008,0c4.096,0 8.192,1.568 11.312,4.688s4.688,7.216 4.688,11.312l0,104c0,8.832 7.152,16 16,16s16,-7.168 16,-16l0,-120c0,-8.192 -3.12,-16.384 -9.376,-22.624c-6.256,-6.256 -14.432,-9.376 -22.624,-9.376l-103.008,0c-8.848,0 -16,7.168 -16,16s7.168,16 16,16zm119.008,248c-8.848,0 -16,7.152 -16,16l0,104c0,4.096 -1.568,8.192 -4.688,11.312s-7.216,4.688 -11.312,4.688l-87.008,0c-8.848,0 -16,7.152 -16,16s7.152,16 16,16l103.008,0c8.192,0 16.368,-3.12 22.624,-9.376s9.376,-14.432 9.376,-22.624l0,-120c0,-8.848 -7.152,-16 -16,-16zm-416,-112c8.832,0 16,-7.168 16,-16l0,-104c0,-4.096 1.568,-8.192 4.688,-11.312s7.216,-4.688 11.312,-4.688l88,0c8.832,0 16,-7.168 16,-16s-7.168,-16 -16,-16l-104,0c-8.192,0 -16.384,3.12 -22.624,9.376c-6.256,6.24 -9.376,14.432 -9.376,22.624l0,120c0,8.832 7.168,16 16,16zm120,248l-88,0c-4.096,0 -8.192,-1.568 -11.312,-4.688s-4.688,-7.216 -4.688,-11.312l0,-104c0,-8.848 -7.168,-16 -16,-16s-16,7.152 -16,16l0,120c0,8.192 3.12,16.368 9.376,22.624c6.24,6.256 14.432,9.376 22.624,9.376l104,0c8.832,0 16,-7.152 16,-16s-7.168,-16 -16,-16z" fill="#333333"/>
 </g>
</svg>