<?xml version="1.0" standalone="no"?><!DOCTYPE svg PUBLIC "-//W3C//DTD SVG 1.1//EN" "http://www.w3.org/Graphics/SVG/1.1/DTD/svg11.dtd"><svg class="icon" width="200px" height="200.00px" viewBox="0 0 1024 1024" version="1.1" xmlns="http://www.w3.org/2000/svg"><path fill="#333333" d="M512 0C229.216 0 0 229.216 0 512c0 282.768 229.216 512 512 512 282.752 0 512-229.232 512-512C1024 229.216 794.752 0 512 0zM512 992C246.896 992 32 777.088 32 512 32 246.896 246.896 32 512 32c265.056 0 480 214.896 480 480C992 777.088 777.056 992 512 992zM666.608 415.664c61.84 0 112-50.144 112-112s-50.16-112-112-112c-61.872 0-112 50.144-112 112S604.736 415.664 666.608 415.664zM666.608 223.664c44.192 0 80 35.808 80 80s-35.808 80-80 80-80-35.808-80-80S622.416 223.664 666.608 223.664zM752.672 492.336c-77.104 0-135.664 109.488-162.992 204.112-34.592-128.656-126-280.784-241.68-280.784-148.288 0-256.672 249.92-256.672 379.984 0 8.848 7.168 16 16 16s16-7.152 16-16c0-131.088 105.008-347.984 224.672-347.984s224.672 216.896 224.672 347.984c0 8.848 7.152 16 16 16s16-7.152 16-16c0-84.752 71.552-271.312 148-271.312s148 186.56 148 271.312c0 8.848 7.152 16 16 16s16-7.152 16-16C932.672 708.192 860.944 492.336 752.672 492.336z" /></svg>