<?xml version="1.0" standalone="no"?><!DOCTYPE svg PUBLIC "-//W3C//DTD SVG 1.1//EN" "http://www.w3.org/Graphics/SVG/1.1/DTD/svg11.dtd"><svg class="icon" width="200px" height="200.00px" viewBox="0 0 1024 1024" version="1.1" xmlns="http://www.w3.org/2000/svg"><path fill="#333333" d="M512 0c-282.782 0-512 229.217-512 512 0 282.768 229.217 512 512 512 282.751 0 512-229.232 512-512 0-282.782-229.246-512-512-512zM512 992c-265.104 0-480-214.916-480-480 0-265.104 214.896-480 480-480 265.072 0 480 214.896 480 480 0 265.090-214.93 480-480 480zM848.002 496.002h-672c-8.847 0-16.004 7.153-16.004 15.998s7.15 15.998 16.004 15.998h672c8.847 0 16.004-7.153 16.004-15.998s-7.15-15.998-16.004-15.998z" /></svg>