<?xml version="1.0" standalone="no"?><!DOCTYPE svg PUBLIC "-//W3C//DTD SVG 1.1//EN" "http://www.w3.org/Graphics/SVG/1.1/DTD/svg11.dtd"><svg class="icon" width="200px" height="200.00px" viewBox="0 0 1024 1024" version="1.1" xmlns="http://www.w3.org/2000/svg"><path fill="#333333" d="M512 0C229.216 0 0 229.216 0 512c0 282.768 229.216 512 512 512 282.752 0 512-229.232 512-512C1024 229.216 794.752 0 512 0zM512 992C246.896 992 32 777.088 32 512 32 246.896 246.896 32 512 32c265.056 0 480 214.896 480 480C992 777.088 777.056 992 512 992zM593.12 772.368c6.256 6.256 16.368 6.256 22.624 0s6.256-16.368 0-22.624L378 512.016l237.744-237.76c6.256-6.256 6.256-16.368 0-22.624s-16.368-6.256-22.624 0L344.224 500.544c-3.168 3.152-4.704 7.328-4.656 11.456-0.048 4.144 1.488 8.304 4.656 11.472L593.12 772.368z" /></svg>