<?xml version="1.0" standalone="no"?><!DOCTYPE svg PUBLIC "-//W3C//DTD SVG 1.1//EN" "http://www.w3.org/Graphics/SVG/1.1/DTD/svg11.dtd"><svg t="1713213431545" class="icon" viewBox="0 0 1024 1024" version="1.1" xmlns="http://www.w3.org/2000/svg" p-id="4125" xmlns:xlink="http://www.w3.org/1999/xlink" width="200" height="200"><path d="M789.333333 234.666667V341.333333H853.333333V234.666667h106.666667V170.666667H853.333333V64h-64V170.666667H682.666667v64h106.666666zM512 170.666667H256a85.333333 85.333333 0 0 0-85.333333 85.333333v512a85.333333 85.333333 0 0 0 85.333333 85.333333h512a85.333333 85.333333 0 0 0 85.333333-85.333333v-256h-64v256a21.333333 21.333333 0 0 1-21.333333 21.333333H256a21.333333 21.333333 0 0 1-21.333333-21.333333V256a21.333333 21.333333 0 0 1 21.333333-21.333333h256V170.666667z" fill="#1E1E1E" p-id="4126"></path></svg>