<?xml version="1.0" encoding="UTF-8"?>
<svg xmlns="http://www.w3.org/2000/svg" xmlns:xlink="http://www.w3.org/1999/xlink" width="px" height="px" viewBox="0 0 150 150" version="1.1">
<g id="surface1">
<path style=" stroke:none;fill-rule:nonzero;fill:rgb(20%,20%,20%);fill-opacity:1;" d="M 75 0 C 33.5625 0 0 33.5625 0 75 C 0 116.4375 33.5625 150 75 150 C 116.398438 150 150 116.4375 150 75 C 150 33.5625 116.4375 0 75 0 Z M 75 145.3125 C 36.148438 145.3125 4.6875 113.8125 4.6875 75 C 4.6875 36.148438 36.148438 4.6875 75 4.6875 C 113.8125 4.6875 145.3125 36.148438 145.3125 75 C 145.3125 113.851562 113.8125 145.3125 75 145.3125 Z M 116.175781 118.761719 L 102.636719 111.300781 C 99.414062 112.085938 96.113281 112.875 92.738281 112.875 C 84.375 112.875 76.539062 110.101562 70.648438 105.039062 C 64.726562 99.9375 61.425781 93.074219 61.425781 85.726562 C 61.425781 78.414062 64.6875 71.550781 70.648438 66.414062 C 76.539062 61.351562 84.375 58.574219 92.738281 58.574219 C 109.6875 58.574219 123.976562 71.023438 123.976562 85.726562 C 123.976562 92.960938 119.886719 100.199219 112.425781 106.273438 Z M 103.273438 106.3125 L 108.375 109.125 L 106.988281 104.511719 L 108.300781 103.539062 C 112.386719 100.460938 119.289062 94.011719 119.289062 85.726562 C 119.289062 79.875 116.476562 74.289062 111.414062 69.976562 C 106.351562 65.699219 99.5625 63.261719 92.738281 63.261719 C 85.5 63.261719 78.75 65.664062 73.726562 69.976562 C 68.851562 74.175781 66.148438 79.800781 66.148438 85.726562 C 66.148438 91.6875 68.851562 97.273438 73.726562 101.476562 C 78.75 105.789062 85.5 108.1875 92.738281 108.1875 C 95.851562 108.1875 99.148438 107.363281 102.375 106.539062 Z M 33.148438 102.375 L 37.800781 88.351562 C 29.175781 81.789062 24.601562 73.539062 24.601562 64.386719 C 24.601562 55.835938 28.460938 47.886719 35.4375 41.960938 C 42.261719 36.148438 51.335938 32.960938 60.976562 32.960938 C 69.5625 32.960938 77.960938 35.550781 84.636719 40.238281 C 91.425781 45 96.039062 51.601562 97.574219 58.835938 L 93 59.8125 C 90.300781 47.175781 76.539062 37.648438 60.976562 37.648438 C 52.460938 37.648438 44.4375 40.460938 38.476562 45.523438 C 32.550781 50.550781 29.289062 57.226562 29.289062 64.386719 C 29.289062 72.5625 33.523438 79.648438 41.925781 85.539062 L 43.351562 86.550781 L 41.175781 93.113281 L 48.710938 89.324219 L 49.5 89.476562 C 50.175781 89.625 50.851562 89.738281 51.488281 89.886719 C 54.789062 90.5625 57.636719 91.164062 60.976562 91.164062 C 61.875 91.164062 62.851562 91.125 63.976562 91.050781 L 64.351562 95.738281 C 63.113281 95.851562 62.023438 95.886719 60.976562 95.886719 C 57.148438 95.886719 53.960938 95.210938 50.550781 94.539062 C 50.175781 94.460938 49.761719 94.386719 49.386719 94.3125 Z M 46.273438 54.113281 C 46.273438 55.871094 47.703125 57.300781 49.460938 57.300781 C 51.222656 57.300781 52.648438 55.871094 52.648438 54.113281 C 52.648438 52.351562 51.222656 50.925781 49.460938 50.925781 C 47.703125 50.925781 46.273438 52.351562 46.273438 54.113281 Z M 99.335938 78.039062 C 99.335938 79.796875 100.765625 81.226562 102.523438 81.226562 C 104.285156 81.226562 105.710938 79.796875 105.710938 78.039062 C 105.710938 76.277344 104.285156 74.851562 102.523438 74.851562 C 100.765625 74.851562 99.335938 76.277344 99.335938 78.039062 Z M 80.585938 78.039062 C 80.585938 79.796875 82.015625 81.226562 83.773438 81.226562 C 85.535156 81.226562 86.960938 79.796875 86.960938 78.039062 C 86.960938 76.277344 85.535156 74.851562 83.773438 74.851562 C 82.015625 74.851562 80.585938 76.277344 80.585938 78.039062 Z M 70.085938 54.113281 C 70.085938 55.871094 71.515625 57.300781 73.273438 57.300781 C 75.035156 57.300781 76.460938 55.871094 76.460938 54.113281 C 76.460938 52.351562 75.035156 50.925781 73.273438 50.925781 C 71.515625 50.925781 70.085938 52.351562 70.085938 54.113281 Z M 70.085938 54.113281 "/>
</g>
</svg>
